<?xml version="1.0" encoding="utf-8"?>
<!-- Generator: Adobe Illustrator 16.0.0, SVG Export Plug-In . SVG Version: 6.00 Build 0)  -->
<!DOCTYPE svg PUBLIC "-//W3C//DTD SVG 1.1//EN" "http://www.w3.org/Graphics/SVG/1.1/DTD/svg11.dtd">
<svg version="1.1" id="Layer_1" xmlns="http://www.w3.org/2000/svg" xmlns:xlink="http://www.w3.org/1999/xlink" x="0px" y="0px"
	 width="397.23px" height="397.23px" viewBox="0 0 397.23 397.23" enable-background="new 0 0 397.23 397.23" xml:space="preserve">
<rect x="0" y="0" fill="#7C55FB" width="397.23" height="397.23"/>
<g>
	<g>
		<g>
			<defs>
				<rect id="SVGID_1_" x="0" y="0" width="397.23" height="397.23"/>
			</defs>
			<clipPath id="SVGID_2_">
				<use xlink:href="#SVGID_1_"  overflow="visible"/>
			</clipPath>
			<g clip-path="url(#SVGID_2_)">
				<g>
					<g>
						<g>
							<path fill="#FEA30A" d="M169.711,331.267c1.928,1.196,4.125,2.067,6.702,2.461c7.253,1.11,14.779,0.925,22.103,0.827
								c10.584-0.147,20.692-1.626,29.672-6.175c-3.834-17.876,0.399-47.031,0.399-47.031s-12.081-2.704-29.253-5.75
								c-17.224,3.046-29.299,5.75-29.299,5.75S174.759,313.86,169.711,331.267z"/>
							<path fill="#E2E2E2" d="M318.875,403.197c-2.655-35.79-13.882-70.131-46.365-80.159c-2.256-0.69-4.919-1.454-7.729-2.245
								c-4.4-1.275-10.072-2.882-15.738-4.33c-0.767-0.21-1.497-0.416-2.175-0.607c-3.759-1.018-7.635-1.839-11.59-2.475
								c-1.139-0.196-2.22-0.363-3.221-0.489c0,0-0.068,0.047-0.194,0.121c-0.197-0.03-0.381-0.053-0.563-0.104
								c0,0,0.01,0.153,0.023,0.433c-3.963,2.355-23.062,13.203-32.194,9.119c-10.148,4.04-31.377-8.364-33.057-9.363
								c0.001-0.084,0.008-0.15,0.011-0.188c0-0.03,0-0.03,0-0.03c-1.045,0.222-2.113,0.438-3.186,0.643
								c-1.364,0.25-2.823,0.543-4.354,0.877c-1.139,0.232-2.283,0.462-3.423,0.697c-1.188,0.265-2.41,0.563-3.605,0.859
								c-9.269,2.354-16.157,4.434-24.99,6.952c-2.81,0.799-5.432,1.804-7.913,2.967c-0.167,0.082-0.343,0.15-0.512,0.236
								c-0.781,0.379-1.536,0.776-2.284,1.19c-0.084,0.043-0.175,0.087-0.267,0.136c-1.184,0.662-2.317,1.38-3.422,2.124
								c7.465,10.596,11.895,23.419,11.895,37.128c0,29.139-19.951,54.309-46.727,62.415c-3.12,21.051-7.38,52.103-11.212,84.425
								c0.135,0.008,0.271,0.019,0.405,0.024c0,0.005,0,0.009,0,0.009c9.644,0.653,19.318,0.996,29.01,1.118
								c0.084,0,0.168,0.003,0.253,0.003c1.365,0.017,2.74,0.025,4.107,0.033c0.652,0.006,1.301,0.014,1.947,0.016
								c0.699,0.004,1.397,0,2.097,0c3.222,0,6.443-0.01,9.662-0.049c0.062,0,0.122,0,0.182-0.003
								c6.365-41.928,12.25-79.649,13.845-89.993c-0.702,9.855-3.257,45.193-6.489,89.888c1.375-0.028,2.747-0.077,4.119-0.11v0.024
								c3.332-0.079,6.661-0.186,9.989-0.284c1.531-0.046,3.062-0.088,4.593-0.132c5.521-0.183,11.038-0.377,16.54-0.591
								c11.091-0.43,22.18-0.733,33.252-0.993c0,0,0-0.009,0-0.012c6.266-0.139,12.526-0.257,18.788-0.351c0,0,0,0.004,0,0.006
								c16.742-0.257,33.487-0.355,50.23-0.348c4.853,0.003,9.71,0.02,14.561,0.039c1.549,0.005,3.098,0.005,4.653,0.013
								c-3.451-47.729-6.079-84.164-6.424-89.104c0.796,5.214,6.938,44.46,13.729,89.154c11.424,0.073,22.843,0.174,34.269,0.309
								c4.384,0.049,8.77,0.137,13.156,0.194C326.213,459.843,319.104,410.907,318.875,403.197z"/>
							<g>
								<path fill="#7C55FB" d="M214.64,512.033l-8.589-167.554l-0.071-1.16h-13.836l-0.067,1.124l-8.167,168.184
									C194.149,512.361,204.399,512.164,214.64,512.033z"/>
								<path fill="#7C55FB" d="M188.372,334.777l3.508,7.979l0.264,0.561h13.836l0.302-0.561l2.882-6.556
									c-4.538-6.225-10.031-13.677-10.031-13.677S193.5,328.785,188.372,334.777z"/>
								<polygon fill="#6D52CE" points="192.077,344.443 192.144,344.608 205.98,344.608 206.052,344.479 205.98,343.319 
									192.144,343.319 								"/>
							</g>
							<path fill="#E2E2E2" d="M180.656,344.18c1.325-1.921,4.404-5.597,7.715-9.407c5.128-5.988,10.76-12.247,10.76-12.247
								s5.49,7.447,10.032,13.674c2.715,3.709,5.063,6.954,5.761,7.98c12.936-11.919,25.025-28.075,11.915-39.632
								c0,0,2.648,16.39-27.545,17.849c-14.434-0.602-25.464-6.627-27.317-17.515C165.589,309.878,158.608,318.655,180.656,344.18z"
								/>
							<path fill="#0F156D" d="M114.775,512.194c6.968-45.936,13.368-86.849,14.186-92.184c-0.357,5.042-3.088,42.897-6.648,92.071
								c11.778-0.225,23.532-0.636,35.244-1.084c11.085-0.436,22.175-0.742,33.252-0.999c1.161-25.515,1.985-43.842,1.985-44.434
								c-28.443-110.31-25.597-153.682-25.493-155.137c0-0.03,0-0.03,0-0.03c-2.313,0.495-4.708,0.924-7.085,1.426
								c-1.294,0.263-2.585,0.527-3.877,0.791c-1.192,0.265-2.417,0.563-3.603,0.856c-9.273,2.354-16.163,4.439-25,6.958
								c-32.682,9.303-42.375,44.493-45.026,80.279c-1.616,7.245-9.1,57.092-15.413,110.335
								C83.063,512.123,98.923,512.377,114.775,512.194z"/>
							<path fill="#0F156D" d="M279.029,509.35c-3.448-47.733-6.07-84.167-6.418-89.106c0.799,5.214,6.94,44.459,13.729,89.155
								c11.422,0.074,22.84,0.176,34.268,0.31c4.387,0.049,8.767,0.135,13.151,0.191c-6.333-52.545-13.434-101.478-13.666-109.191
								c-2.654-35.786-13.888-70.125-46.368-80.159c-7.274-2.215-18.792-5.256-25.646-7.177c-0.267-0.065-0.496,0.068-0.728,0
								c-4.536-1.226-9.578-1.888-14.103-2.813c-0.268-0.035-0.498-0.065-0.736-0.131c0,0,0.103,1.394,0.077,4.338
								c-0.077,13.537-2.225,59.623-24.37,150.767c-0.179,0.75,0.433,18.88,1.373,44.112
								C232.737,509.292,255.877,509.23,279.029,509.35z"/>
							<path fill="#FFFFFF" d="M180.656,344.18c1.325-1.921,4.404-5.597,7.715-9.407c5.128-5.988,10.76-12.247,10.76-12.247
								s5.49,7.447,10.032,13.674c2.715,3.709,5.063,6.954,5.761,7.98c12.936-11.919,25.025-28.075,11.915-39.632
								c0,0,2.648,16.39-27.545,17.849c-14.434-0.602-25.464-6.627-27.317-17.515C165.589,309.878,158.608,318.655,180.656,344.18z"
								/>
						</g>
					</g>
					<g>
						<path fill="#FFFFFF" d="M197.433,307.389c0,0-34.492,1.607-54.611-44.392c-4.172-5.519-9.826-10.107-16.488-13.392l0,0
							c-32.872-16.198-49.024-49.095-39.486-80.417l11.103-36.474c4.126-33.479,40.258-60.401,87.794-62.42
							c3.766-0.159,7.656-0.245,11.678-0.245h1.28c4.017,0,7.912,0.086,11.681,0.245c47.534,2.02,83.668,28.941,87.79,62.42
							l11.109,36.474c9.53,31.323-6.621,64.219-39.492,80.417l0,0c-6.662,3.284-12.317,7.873-16.482,13.392
							c0,0-16.573,41.267-54.017,44.482"/>
						<g>
							<path fill="#FEA30A" d="M89.535,19.033c2.833-8.938,4.91-7.075,12.877-4.379c11.018,3.73,19.5,11.529,27.942,19.371
								c1.577,1.461,17.497,17.403,23.047,24.743c1.224,1.621,2.675,1.268,4.349,0.681c27.248-9.542,54.507-8.839,81.757-0.022
								c1.388,0.446,2.734,1.198,3.932-0.286c5.785-7.111,24.756-27.785,28.562-30.878c8.012-6.504,16.729-11.458,26.726-13.901
								c4.332-1.054,6.59,0.34,8.199,4.584c4.256,11.237,3.742,22.822,2.502,34.4c-0.903,8.354-2.54,16.627-3.854,24.933
								c-3.125,10.917-6.054,21.897-9.456,32.715c-1.283,4.089-1.032,7.375,0.963,11.132c10.275,19.228,14.698,40.051,14.836,61.967
								c-20.733-3.635-39.888-0.156-56.777,13.69c-2.493,2.052-5.603,6.314-7.305,5.758c-2.842-0.925-2.686-5.934-4.396-8.947
								c-1.08-1.926-1.911-4.023-3.006-5.95c-16.633-29.385-54.052-33.781-76.552-9.002c-5.732,6.314-9.961,13.68-13.319,21.602
								c-1.075,2.506-1.812,3.776-4.334,1.14c-17.283-18.031-38.298-22.914-61.786-18.764c-0.073-1.303-0.296-2.622-0.199-3.912
								c1.555-20.36,6.688-39.703,15.133-58.102c0.91-1.974,2.641-3.871,1.635-6.266C96.255,104.004,84.51,34.878,89.535,19.033z
								 M299.31,50.01c0.159-5.301-0.156-10.479-2.13-15.447c-1.144-2.876-2.358-3.982-5.646-2.511
								c-14.76,6.628-26.373,17.595-37.771,28.965c-2.611,2.609-0.811,3.6,1.013,5.015c8.179,6.319,16.478,12.496,22.543,21.302
								c2.597,3.779,5.509,7.332,8.29,10.973c1.406,1.845,2.68,2.483,3.646-0.425C294.423,82.331,298.5,66.54,299.31,50.01z"/>
							<path fill="#FE8300" d="M299.828,48.878c-0.835,17.955-5.003,35.102-10.283,51.991c-0.988,3.16-2.289,2.468-3.728,0.463
								c-2.842-3.958-5.811-7.818-8.468-11.917c-6.2-9.558-14.68-16.27-23.033-23.136c-1.866-1.532-3.709-2.605-1.037-5.435
								c11.646-12.351,23.512-24.269,38.596-31.468c3.357-1.599,4.6-0.39,5.771,2.73C299.658,37.503,299.978,43.117,299.828,48.878z
								"/>
							<path fill="#FE8300" d="M95.99,48.878c0.83,17.955,4.998,35.102,10.276,51.991c0.993,3.16,2.286,2.468,3.729,0.463
								c2.838-3.958,5.819-7.818,8.471-11.917c6.195-9.558,14.672-16.27,23.032-23.136c1.868-1.532,3.708-2.605,1.036-5.435
								c-11.652-12.351-23.516-24.269-38.599-31.468c-3.36-1.599-4.598-0.39-5.772,2.73C96.156,37.503,95.834,43.117,95.99,48.878z"
								/>
						</g>
						<path fill="#0F156D" d="M199.074,169.829c-30.61,0.005-35.006,25.238-35.006,25.238l15.783,14.426
							c10.885,9.947,27.566,9.947,38.447-0.003l15.794-14.437C234.09,195.056,229.689,169.826,199.074,169.829z"/>
						<path fill="#FFBE5F" d="M191.283,141.991c-3.371,29.782-66.048,40.497-63.002,0.958c2.233-28.998,48.37-41.117,60.453-18.338
							c2.942,5.564,2.548,11.515,2.548,18.338"/>
						<g>
							<path fill="#0F156D" d="M182.924,126.759c0,5.504-4.461,9.966-9.965,9.966c-5.499,0-9.961-4.456-9.961-9.962
								c0-5.502,4.458-9.962,9.96-9.962C178.46,116.8,182.924,121.26,182.924,126.759z"/>
							<path fill="#FFFFFF" d="M178.444,123.004c0,2.05-1.659,3.711-3.711,3.711c-2.045,0-3.708-1.662-3.708-3.706
								c0-2.05,1.662-3.715,3.708-3.715C176.781,119.295,178.444,120.957,178.444,123.004z"/>
						</g>
						<path fill="#EF8630" d="M191.55,141.991c-3.367,29.782-66.046,40.497-63.003,0.958c0,0,16.38,27.926,60.839,0.353
							L191.55,141.991z"/>
						<path fill="#D2702B" d="M179.064,110.02c0,0-0.276,0.004-0.792,0.017c-0.493,0.011-1.386,0.021-1.909,0.062
							c-0.582-0.004-1.562,0.115-2.66,0.257c-1.11,0.178-2.377,0.42-3.792,0.77c-2.824,0.709-6.209,1.849-9.875,3.327
							c-3.673,1.483-7.619,3.27-11.647,5.098c-4.018,1.825-8.139,3.651-12.133,5.167c-2.016,0.739-3.97,1.435-5.894,1.976
							c-1.911,0.556-3.764,0.991-5.506,1.281c-0.872,0.14-1.702,0.277-2.516,0.342c-0.8,0.096-1.568,0.14-2.298,0.15
							c-0.718,0.042-1.402,0.02-2.034-0.011c-0.625-0.014-1.199-0.055-1.722-0.131c-1.042-0.096-1.846-0.26-2.393-0.386
							c-0.548-0.118-0.837-0.175-0.837-0.175c-0.917-0.194-1.501-1.095-1.31-2.012c0.171-0.816,0.902-1.372,1.707-1.347l0.178,0.006
							c0,0,0.254,0.005,0.728,0.017c0.47,0.024,1.161,0.044,2.041-0.033c0.437-0.011,0.921-0.065,1.449-0.15
							c0.525-0.066,1.089-0.145,1.694-0.29c0.601-0.118,1.239-0.268,1.907-0.474c0.669-0.17,1.366-0.419,2.086-0.67
							c1.445-0.512,2.989-1.174,4.592-1.968c1.606-0.772,3.271-1.724,4.98-2.715c3.415-2.042,6.978-4.438,10.592-6.918
							c3.609-2.473,7.29-5.006,10.922-7.283c3.645-2.275,7.267-4.285,10.629-5.799c1.681-0.758,3.295-1.385,4.771-1.899
							c1.493-0.487,2.783-0.892,4.098-1.171c1.362-0.324,1.975-0.423,2.498-0.531c0.507-0.1,0.777-0.152,0.777-0.152
							c4.282-0.844,8.437,1.946,9.278,6.224c0.844,4.281-1.942,8.436-6.223,9.279c-0.447,0.087-0.894,0.137-1.332,0.146
							L179.064,110.02L179.064,110.02z"/>
						<path fill="#FFBE5F" d="M200.895,141.991c3.369,29.782,66.048,40.497,63,0.958c-2.235-28.998-48.371-41.117-60.455-18.338
							c-2.939,5.564-2.545,11.515-2.545,18.338"/>
						<g>
							<path fill="#0F156D" d="M209.256,126.759c0,5.504,4.46,9.966,9.964,9.966c5.499,0,9.962-4.456,9.962-9.962
								c0-5.502-4.463-9.962-9.959-9.962C213.718,116.8,209.256,121.26,209.256,126.759z"/>
							<path fill="#FFFFFF" d="M218.026,123.004c0,2.05,1.661,3.711,3.711,3.711c2.044,0,3.706-1.662,3.706-3.706
								c0-2.05-1.664-3.715-3.706-3.715C219.69,119.295,218.026,120.957,218.026,123.004z"/>
						</g>
						<path fill="#EF8630" d="M200.632,141.991c3.361,29.782,66.043,40.497,62.999,0.958c0,0-16.378,27.926-60.836,0.353
							L200.632,141.991z"/>
						<path fill="#D2702B" d="M214.785,94.368c0,0,0.267,0.054,0.774,0.153c0.526,0.11,1.137,0.207,2.497,0.531
							c1.315,0.28,2.608,0.684,4.1,1.171c1.478,0.515,3.094,1.142,4.773,1.899c3.361,1.514,6.984,3.524,10.628,5.798
							c3.633,2.277,7.313,4.809,10.921,7.283c3.616,2.478,7.182,4.876,10.592,6.918c1.712,0.992,3.375,1.944,4.982,2.716
							c1.606,0.794,3.147,1.456,4.592,1.968c0.727,0.251,1.419,0.5,2.086,0.67c0.668,0.206,1.306,0.356,1.904,0.474
							c0.608,0.145,1.172,0.225,1.7,0.291c0.526,0.087,1.013,0.139,1.445,0.15c0.882,0.076,1.571,0.058,2.042,0.033
							c0.473-0.011,0.728-0.016,0.728-0.016l0.178-0.006c0.939-0.027,1.72,0.712,1.741,1.653c0.027,0.83-0.558,1.541-1.344,1.705
							c0,0-0.29,0.058-0.837,0.175c-0.551,0.126-1.353,0.291-2.396,0.386c-0.52,0.077-1.095,0.118-1.722,0.131
							c-0.632,0.03-1.316,0.052-2.033,0.011c-0.731-0.011-1.494-0.055-2.299-0.151c-0.813-0.065-1.648-0.203-2.519-0.342
							c-1.738-0.29-3.591-0.725-5.504-1.281c-1.925-0.542-3.879-1.237-5.893-1.977c-3.999-1.517-8.118-3.342-12.137-5.167
							c-4.026-1.828-7.97-3.615-11.646-5.097c-3.665-1.478-7.05-2.618-9.875-3.327c-1.415-0.35-2.682-0.591-3.79-0.771
							c-1.101-0.144-2.078-0.263-2.661-0.257c-0.524-0.041-1.415-0.051-1.91-0.062c-0.512-0.011-0.789-0.018-0.789-0.018h-0.01
							c-4.363-0.081-7.834-3.682-7.752-8.046c0.088-4.361,3.689-7.833,8.05-7.749C213.863,94.232,214.35,94.285,214.785,94.368z"/>
					</g>
				</g>
				<g>
					<path fill="#0F156D" d="M258.127,225.232c-0.214,0.583-9.29,24.311-26.541,40.927c-9.756,9.399-22.122,16.526-36.988,15.916
						c-14.93-0.613-26.058-8.389-34.182-18.092c-14.449-17.238-19.415-40.558-19.415-40.558c4.907,4.172,9.941,7.562,15.03,10.289
						c28.027,15.021,57.776,9.836,77.886,2.788c6.81-2.381,12.514-4.986,16.671-7.085
						C255.241,227.064,257.962,225.336,258.127,225.232z"/>
					<path fill="#0F156D" d="M247.969,215.494c0,0,9.235,1.031,21.987,10.614l0,0c0,0-8.857-0.791-13.83,3.139
						c-1.149,0.907-2.824-0.725-4.023-1.606C252.099,227.64,254.015,222.737,247.969,215.494z"/>
					<path fill="#0F156D" d="M128.894,224.889c0,0,10.164-7.417,23.712-4.903c0,0-8.285,1.395-10.015,11.336
						C142.593,231.322,141.004,224.841,128.894,224.889z"/>
					<path fill="#FFFFFF" d="M234.087,238.4c-0.755,2.975-1.71,5.622-2.578,7.724c-1.283,3.104-2.376,5.007-2.376,5.007
						c-16.074,8.562-32.056,8.703-44.599,6.379c-14.588-2.704-24.522-8.741-24.522-8.741c-1.604-2.072-2.66-5.466-3.347-8.742
						c-0.259-1.21-0.467-2.414-0.627-3.52C183.923,252.28,213.821,246.275,234.087,238.4z"/>
					<path fill="#F1F2F2" d="M234.087,238.4c-0.755,2.975-1.71,5.622-2.578,7.724c-16.764,7.193-33.428,6.931-46.674,4.472
						c-16.137-2.987-27.206-9.239-27.206-9.239c-0.345-0.399-0.664-0.852-0.965-1.333c-0.259-1.212-0.467-2.414-0.627-3.521
						C183.923,252.28,213.821,246.275,234.087,238.4z"/>
					<path fill="#FFFFFF" d="M225.339,256.757c-0.788,2.971-1.696,5.628-2.503,7.738c-1.191,3.112-2.146,5.039-2.146,5.039
						c-12.588,8.947-24.465,9.536-33.602,7.574c-10.625-2.28-17.539-7.999-17.539-7.999c-1.03-2.017-1.557-5.358-1.816-8.591
						c-0.1-1.199-0.16-2.379-0.195-3.477C187.032,271.931,209.692,265.135,225.339,256.757z"/>
					<path fill="#F1F2F2" d="M224.814,263.595c-0.788,2.974-1.7,5.624-2.505,7.733c-12.995,7.609-25.351,7.812-34.995,5.749
						c-11.752-2.524-19.495-8.423-19.495-8.423c-0.223-0.383-0.427-0.828-0.614-1.298c-0.1-1.195-0.161-2.384-0.198-3.472
						C186.506,278.771,209.166,271.976,224.814,263.595z"/>
				</g>
			</g>
		</g>
	</g>
</g>
</svg>
