<?xml version="1.0" encoding="utf-8"?>
<!-- Generator: Adobe Illustrator 16.0.0, SVG Export Plug-In . SVG Version: 6.00 Build 0)  -->
<!DOCTYPE svg PUBLIC "-//W3C//DTD SVG 1.1//EN" "http://www.w3.org/Graphics/SVG/1.1/DTD/svg11.dtd">
<svg version="1.1" id="Layer_1" xmlns="http://www.w3.org/2000/svg" xmlns:xlink="http://www.w3.org/1999/xlink" x="0px" y="0px"
	 width="397.23px" height="397.23px" viewBox="0 0 397.23 397.23" enable-background="new 0 0 397.23 397.23" xml:space="preserve">
<linearGradient id="SVGID_1_" gradientUnits="userSpaceOnUse" x1="374.4138" y1="-18.4773" x2="22.8179" y2="415.7074">
	<stop  offset="0.0013" style="stop-color:#002BFF"/>
	<stop  offset="0.2606" style="stop-color:#3D1CFF"/>
	<stop  offset="0.5051" style="stop-color:#7010FF"/>
	<stop  offset="0.7176" style="stop-color:#9407FF"/>
	<stop  offset="0.8897" style="stop-color:#AA02FF"/>
	<stop  offset="1" style="stop-color:#B200FF"/>
</linearGradient>
<rect x="0" y="0" fill="url(#SVGID_1_)" width="397.23" height="397.23"/>
<g>
	<g>
		<path fill="#FFFFFF" d="M55.828,143.913c3.534,10.502,6.961,20.441,10.279,29.816c3.319,9.375,6.577,18.458,9.776,27.245
			c3.2,8.787,6.438,17.403,9.713,25.851c3.273,8.446,6.833,16.975,10.675,25.586c3.661-8.47,7.16-16.929,10.498-25.376
			c3.338-8.447,6.64-17.062,9.909-25.845c3.269-8.782,6.535-17.892,9.804-27.322c3.267-9.431,6.674-19.415,10.225-29.955h12.752
			c-5.409,15.511-10.293,29.097-14.646,40.761c-4.356,11.664-8.375,22.221-12.059,31.673c-3.684,9.454-7.202,18.167-10.559,26.131
			c-3.357,7.967-6.87,15.999-10.531,24.092H90.367c-3.579-8.176-7.086-16.248-10.516-24.209
			c-3.432-7.958-7.024-16.654-10.777-26.079c-3.753-9.425-7.788-19.979-12.102-31.657c-4.317-11.676-9.182-25.249-14.597-40.711
			H55.828z"/>
		<path fill="#FFFFFF" d="M140.609,220.729c0-8.022,1.15-15.016,3.452-20.976c2.3-5.956,5.31-10.941,9.026-14.955
			c3.717-4.01,7.965-6.992,12.744-8.939c4.779-1.947,9.705-2.92,14.779-2.92c11.208,0,20.147,3.659,26.815,10.974
			c6.666,7.318,10,18.585,10,33.806c0,0.947-0.029,1.89-0.088,2.832c-0.062,0.947-0.148,1.832-0.268,2.654h-64.249
			c0.354,11.213,3.125,19.826,8.319,25.843c5.191,6.017,13.452,9.028,24.78,9.028c6.253,0,11.208-0.591,14.869-1.771
			c3.654-1.179,6.309-2.183,7.965-3.011l2.121,9.912c-1.65,0.946-4.748,2.066-9.291,3.362c-4.543,1.299-9.883,1.948-16.018,1.948
			c-8.025,0-14.868-1.181-20.532-3.54c-5.664-2.359-10.326-5.664-13.982-9.913c-3.659-4.247-6.314-9.292-7.965-15.131
			C141.433,234.092,140.609,227.693,140.609,220.729z M205.566,213.47c-0.238-9.556-2.479-16.991-6.726-22.3
			c-4.248-5.31-10.265-7.965-18.053-7.965c-4.132,0-7.819,0.826-11.062,2.479c-3.247,1.652-6.08,3.865-8.497,6.638
			c-2.42,2.772-4.309,5.991-5.664,9.645c-1.358,3.661-2.155,7.494-2.39,11.504H205.566z"/>
	</g>
	<path fill="#FFFFFF" d="M311.359,138.774v21.905l-60.598,14.173v-36.079h-25.279v130.362h25.279v-21.904l60.598-14.174v36.078
		h25.275V138.774H311.359z M311.359,207.103l-60.598,14.174v-20.459l60.598-14.184V207.103z"/>
	<path fill="#FFFFFF" d="M193.237,202.851c-0.054-0.154-0.116-0.294-0.173-0.444c-0.131,0.147-0.262,0.298-0.393,0.444H193.237z"/>
</g>
</svg>
